<svg xmlns="http://www.w3.org/2000/svg" width="512" height="512"><path d="M448.46 246.433L341 151.008a7.8 7.8 0 0 0-5.235-2.008H263V93.1a51.647 51.647 0 0 0-30.171-47.143L159.646 12.76a7.983 7.983 0 1 0-6.518 14.574l73.084 33.207A35.628 35.628 0 0 1 247 93.11V149h-70.755a7.99 7.99 0 0 0-5.31 2.008l-107.4 95.43a7.853 7.853 0 0 0-2.535 5.98v70.17a242.249 242.249 0 0 0 42.794 138.074 90.874 90.874 0 0 0 90.441 37.91l3.522-.628a90.576 90.576 0 0 0 24.821-8.2 75.118 75.118 0 0 1 66.872 0 90.668 90.668 0 0 0 24.835 8.2l3.558.628a90.6 90.6 0 0 0 90.364-37.91A242.239 242.239 0 0 0 451 322.587v-70.17a7.862 7.862 0 0 0-2.539-5.984zM309.815 165l-8.146 8.788A32.213 32.213 0 0 1 278.324 184H263v-19zM247 184h-13.324a32.213 32.213 0 0 1-23.345-10.212L202.185 165H247zm-67.718-19h.97l18.406 19.73A48.267 48.267 0 0 0 233.676 200h44.648a48.27 48.27 0 0 0 35.018-15.269L331.748 165h.97l96.834 85.92-64.43 32.88a35.1 35.1 0 0 1-31.822 0l-54.12-27.624a51.139 51.139 0 0 0-46.369 0l-54.116 27.62a35.1 35.1 0 0 1-31.823 0L82.448 250.92zm215.746 286.586a74.843 74.843 0 0 1-74.485 31.228l-3.523-.627a74.625 74.625 0 0 1-20.443-6.76 91.188 91.188 0 0 0-81.182 0 74.719 74.719 0 0 1-20.459 6.76l-3.557.627a74.717 74.717 0 0 1-74.409-31.229 226.313 226.313 0 0 1-39.97-129V265.94l62.75 32.1a50.979 50.979 0 0 0 46.294 0l54.078-27.62a35.055 35.055 0 0 1 31.8 0l54.11 27.622a50.983 50.983 0 0 0 23.18 5.558 50.378 50.378 0 0 0 23.031-5.558L435 265.94v56.648a226.313 226.313 0 0 1-39.972 128.999z"/></svg>