<?xml version="1.0"?>
<svg xmlns="http://www.w3.org/2000/svg" id="Layer_1" data-name="Layer 1" viewBox="0 0 512 512" width="512" height="512"><title>Coconut</title><path d="M448.461,246.433,340.99,151.008A7.8,7.8,0,0,0,335.755,149H263V93.11a51.647,51.647,0,0,0-30.171-47.143L159.646,12.761a7.983,7.983,0,1,0-6.518,14.574l73.084,33.207A35.628,35.628,0,0,1,247,93.11V149H176.245a7.99,7.99,0,0,0-5.31,2.008l-107.4,95.429A7.853,7.853,0,0,0,61,252.417v70.17a242.249,242.249,0,0,0,42.794,138.074,90.874,90.874,0,0,0,90.441,37.91l3.522-.628a90.576,90.576,0,0,0,24.821-8.2,75.118,75.118,0,0,1,66.872,0,90.668,90.668,0,0,0,24.835,8.2l3.558.628h0a90.6,90.6,0,0,0,90.364-37.91A242.239,242.239,0,0,0,451,322.587v-70.17A7.862,7.862,0,0,0,448.461,246.433ZM309.815,165l-8.146,8.788A32.213,32.213,0,0,1,278.324,184H263V165ZM247,184H233.676a32.213,32.213,0,0,1-23.345-10.212L202.185,165H247Zm-67.718-19h.97l18.406,19.73A48.267,48.267,0,0,0,233.676,200h44.648a48.27,48.27,0,0,0,35.018-15.269L331.748,165h.97l96.834,85.919L365.121,283.8a35.1,35.1,0,0,1-31.822,0l-54.12-27.624a51.139,51.139,0,0,0-46.369,0l-54.116,27.621a35.1,35.1,0,0,1-31.823,0L82.448,250.919ZM395.028,451.586a74.843,74.843,0,0,1-74.485,31.228l-3.523-.627a74.625,74.625,0,0,1-20.443-6.76,91.188,91.188,0,0,0-81.182,0,74.719,74.719,0,0,1-20.459,6.76l-3.557.627a74.717,74.717,0,0,1-74.409-31.229,226.313,226.313,0,0,1-39.97-129V265.939l62.749,32.1a50.979,50.979,0,0,0,46.294,0l54.078-27.62a35.055,35.055,0,0,1,31.8,0l54.111,27.622a50.983,50.983,0,0,0,23.18,5.558,50.378,50.378,0,0,0,23.031-5.558L435,265.939v56.648A226.313,226.313,0,0,1,395.028,451.586Z"/></svg>
