<svg xmlns="http://www.w3.org/2000/svg" viewBox="0 0 480.1 480.1"><path d="M312.028 103.683l16-.086.086 16-16 .086zM472.06 255.405h-113.6l9.6-143.472a8.08 8.08 0 0 0-2.152-6.016 8.75 8.75 0 0 0-5.848-2.512l-16 .088.08 16h7.408l-1.912 28.616-23.2 12.872a88.33 88.33 0 0 1-78.4 3.448v-44.45l48.04-.248-.08-16-47.936.248V67.797l84.296-53.6L323.763.653l-88 56a8 8 0 0 0-3.704 6.752v40.656l-111.96.576a8 8 0 0 0-7.954 8.046 7.99 7.99 0 0 0 .018.49l8.904 133.52a136.52 136.52 0 0 0-11.2 26.76 79.52 79.52 0 0 0-69.328-40.72 8 8 0 0 0-8 8 79 79 0 0 0 13.12 43.656 44.3 44.3 0 0 0-9.6 6.4l-2.32 2.048a99.2 99.2 0 0 0-30.48 99.736l4.888 18.888c6.135 23.72 20.805 44.343 41.2 57.92a56.05 56.05 0 0 0 58.776 2.28l-.448-.8a194.5 194.5 0 0 0 46.032 7.776c1.6.08 3.2.08 4.856.112v.656H264.06c119.187.106 215.894-96.428 216-215.616v-.384a8 8 0 0 0-8-8zm-116.657 20.36v-4.36h79.672c-3.08 64.858-42.504 122.422-101.864 148.736a169.69 169.69 0 0 1-46.544 13.048c12.003-10.453 22.596-22.423 31.512-35.608 24.333-35.958 37.302-78.398 37.224-121.816zM232.06 120.06v38.68c-26.24-7.274-54.285-3.992-78.136 9.144l-21.296 11.832-3.936-59.128 103.368-.528zm-86.86 118.9l.976-1.264-10.216-7.88-2.168-32.408 27.856-15.528a88.3 88.3 0 0 1 79.056-3.2 104.27 104.27 0 0 0 93.448-3.76l14.136-7.848-3.584 53.792c-1.785-1.374-3.736-2.516-5.808-3.4l-11.952-4.984a22.67 22.67 0 0 0-19.704 1.04 23.15 23.15 0 0 0-11.712 16.456 211.13 211.13 0 0 1-72.28 125.776 99.05 99.05 0 0 0-32.896-62.92l-2.32-2.048c-16.15-14.377-40.405-14.718-56.952-.8l-10.072 8.4c2.52-21.637 10.882-42.18 24.192-59.424zm-41.727 64.704a63.63 63.63 0 0 1-54.344-54.344c28.24 3.902 50.44 26.104 54.344 54.344zM58.218 456.077c-17.118-11.4-29.432-28.713-34.584-48.624l-4.896-18.88a83.29 83.29 0 0 1 25.64-83.752l2.32-2.048a27.79 27.79 0 0 1 9.704-5.368 79.2 79.2 0 0 0 55.656 22.8c.5-.052 1.014-.154 1.504-.304a21.7 21.7 0 0 0 12.408-4.904l15.32-12.8a27.61 27.61 0 0 1 36.128.52l2.32 2.048c17.954 15.814 28.227 38.595 28.192 62.52a211.3 211.3 0 0 1-105.472 37.72l-35.432 2.664a8 8 0 0 0-7.4 8v29.144a8 8 0 0 0 4 6.904l1.112.656c6.547 3.8 13.3 7.218 20.256 10.232-9.415 1.045-18.897-1.267-26.776-6.528zm96.24 6.576l-.008.008a179.32 179.32 0 0 1-78.8-22.496V423.07l28-2.112c104.155-7.794 189.704-85.347 207.648-188.24a7.2 7.2 0 0 1 3.64-5.16 6.67 6.67 0 0 1 5.848-.312l11.952 4.992c4.023 1.667 6.643 5.597 6.632 9.952v33.6c.07 40.226-11.94 79.546-34.48 112.864-33.644 49.402-90.765 77.5-150.432 74zm109.6.752h-25.496a183.97 183.97 0 0 0 25.496-13.432v.744a185.61 185.61 0 0 0 75.632-15.952 187.6 187.6 0 0 0 111.384-163.36H463.9c-4.2 107.307-92.452 192.108-199.84 192zm104.002-176h16v16h-16zm-24 80h16v16h-16zm24-32h16v16h-16z"/></svg>