<svg height="682pt" viewBox="-21 -94 682.65735 682" width="682pt" xmlns="http://www.w3.org/2000/svg"><path d="m345 300.285156h-18.75v-18.75h18.75zm-31.25 0h-18.75v-18.75h18.75zm0 0"/><path d="m242.234375 142.230469h18.75v18.75h-18.75zm0 0"/><path d="m403.675781 163.554688h18.75v18.75h-18.75zm0 0"/><path d="m345 198.644531h18.75v18.75h-18.75zm0 0"/><path d="m441.425781 198.644531h18.75v18.75h-18.75zm0 0"/><path d="m212.902344 188.65625h18.75v18.75h-18.75zm0 0"/><path d="m310.621094 135.28125v52.953125h18.75v-52.953125c30.742187-4.542969 54.40625-31.101562 54.40625-63.089844 0-31.984375-23.664063-58.542968-54.40625-63.09375v-13.6875h-18.75v13.691406c-30.742188 4.546876-54.414063 31.105469-54.414063 63.089844 0 31.988282 23.671875 58.546875 54.414063 63.089844zm9.375-108.128906c24.832031 0 45.03125 20.207031 45.03125 45.039062 0 24.835938-20.199219 45.039063-45.03125 45.039063-24.835938 0-45.039063-20.203125-45.039063-45.039063 0-24.832031 20.203125-45.039062 45.039063-45.039062zm0 0"/><path d="m639.992188 347.554688v-109.539063l-239.820313-127.859375-8.820313 16.542969 201.753907 107.566406h-546.222657l201.757813-107.5625-8.820313-16.546875-239.820312 127.859375v109.539063h31.453125v28.085937h-31.453125v113.289063h430.898438v-18.75h-412.148438v-75.789063h362.339844l89.03125 89.03125 89.03125-89.03125h62.089844v75.789063h-111.898438v18.75h130.648438v-113.289063h-31.457032v-28.085937zm-621.242188-18.75v-75.789063h602.492188v75.789063zm31.453125 46.835937v-28.085937h167.363281v28.085937zm186.113281 0v-28.085937h167.359375v28.085937zm233.804688 81.269531-62.519532-62.519531h125.03125zm119.664062-81.269531h-167.359375v-28.085937h167.359375zm0 0"/></svg>