<svg xmlns="http://www.w3.org/2000/svg" height="910" viewBox="-21 -94 682.7 682" width="910"><path d="M345 300.285h-18.75v-18.75H345zm-31.25 0H295v-18.75h18.75zM242.234 142.23h18.75v18.75h-18.75zm161.442 21.325h18.75v18.75h-18.75zM345 198.645h18.75v18.75H345zm96.426 0h18.75v18.75h-18.75zm-228.524-10h18.75v18.75h-18.75zm97.718-53.375v52.953h18.75V135.28c30.742-4.543 54.406-31.102 54.406-63.1S360.113 13.648 329.37 9.098V-4.6h-18.75V9.1c-30.742 4.547-54.414 31.105-54.414 63.1s23.672 58.547 54.414 63.1zm9.375-108.13c24.832 0 45.03 20.207 45.03 45.04s-20.2 45.04-45.03 45.04-45.04-20.203-45.04-45.04 20.203-45.04 45.04-45.04zm319.997 320.405v-109.54l-239.82-127.86-8.82 16.543 201.754 107.566H46.883l201.757-107.56-8.82-16.547L0 238.016v109.54h31.453v28.086H0v113.3h430.898v-18.75H18.75v-75.8H381.1l89.03 89.03 89.03-89.03h62.1v75.8H509.344v18.75h130.648V375.64h-31.457v-28.086zM18.75 328.805v-75.8h602.492v75.8zm31.453 46.836v-28.086h167.363v28.086zm186.113 0v-28.086h167.36v28.086zM470.12 456.9l-62.52-62.52h125.03zm119.664-81.27h-167.36v-28.086h167.36zm0 0"/></svg>