<svg xmlns="http://www.w3.org/2000/svg" viewBox="0 0 452.5 452.5"><path d="M446.226 242.698c0-20.022-8.794-39.826-25.43-57.27-14.528-15.233-35.1-28.746-59.78-39.318l71.57-91.523a16.46 16.46 0 0 0 3.064-14.007c-1.166-4.92-4.46-8.98-9.03-11.138-7.207-3.405-15.823-1.182-20.48 5.3L333.2 135.974a305.8 305.8 0 0 0-12.197-3.483L382.42 24.73c2.504-4.393 2.867-9.606.998-14.304S377.702 2.2 372.865.72a16.54 16.54 0 0 0-19.498 8.207L292.478 126.3c-21.377-3.7-43.637-5.613-66.252-5.613-58.247 0-113.087 12.387-154.418 34.88-42.3 23.016-65.582 53.956-65.582 87.12v.005c0 56.072 22.915 108.775 64.524 148.4 41.542 39.562 96.758 61.35 155.476 61.35s113.934-21.788 155.476-61.35c41.6-39.625 64.524-92.33 64.524-148.4v-.001zm-10 0c0 1.72-.08 3.44-.23 5.16-16.52-29.183-52.076-53.673-100.63-68.948l19.267-24.638c51.163 21.256 81.592 54.13 81.592 88.426zM414.253 40.576a6.54 6.54 0 0 1 8.099-2.091 6.51 6.51 0 0 1 3.57 4.404c.462 1.944.02 3.963-1.212 5.538L306.713 199.32c-2.1-.25-4.2-.458-6.378-.596L414.253 40.576zM327.03 144.553L307.6 171.53l-7.9-1.634 16.182-28.398c3.75.95 7.474 1.97 11.15 3.054zM362.245 13.53c1.45-2.798 4.694-4.16 7.7-3.245a6.5 6.5 0 0 1 4.172 3.838 6.51 6.51 0 0 1-.394 5.656l-94.85 166.452a5 5 0 0 0 8.687 4.951l6.897-12.104 6.745 1.318-13.015 18.214c-37.04 1.718-58.747 21.85-59.744 22.794a5 5 0 0 0 6.877 7.259c.236-.225 24.222-22.474 64.25-19.973 40.225 2.514 67.267 27.714 67.53 27.963a4.98 4.98 0 0 0 3.447 1.379c1.32 0 2.64-.52 3.622-1.552a5 5 0 0 0-.173-7.069c-1.028-.98-22.272-20.855-56.073-28.212l10.837-13.857c53.54 16.135 92 44.508 103.643 76.502-8.977 24.64-33.684 47.254-69.826 63.824-38.014 17.428-86.44 27.026-136.362 27.026-56.608 0-109.75-11.954-149.638-33.66-29.398-15.998-48.813-35.785-56.56-57.15 10.613-29.23 43.278-55.24 89.482-71.875l5.472-1.905s-3.86 8.428-2.23 12.813 5.358 7.463 9.973 8.232l2.318.387c11.654 1.942 23.554 2.927 35.367 2.927a214.38 214.38 0 0 0 76.487-14.056c6.7-2.552 10.972-8.597 11.12-15.775.088-4.265-1.3-8.183-3.818-11.26 7.73.353 15.397.94 22.958 1.745l-6.37 12.282a5 5 0 0 0 2.136 6.741 4.98 4.98 0 0 0 2.3.563c1.808 0 3.553-.983 4.442-2.7l92.58-178.473zM155.3 166.5a5 5 0 0 0 4.439 2.692 4.98 4.98 0 0 0 2.305-.566l22.873-11.906 4.14 1.775-42.355 24.885a5 5 0 0 0-1.777 6.844c.93 1.585 2.6 2.468 4.315 2.468a4.9 4.9 0 0 0 2.528-.7l48.704-28.615 7.932 3.4-34.507 17.95a5 5 0 0 0 2.311 9.436 4.99 4.99 0 0 0 2.304-.565l41.57-21.817 6.725 2.882-18.404 9.58c-2.45 1.275-3.4 4.294-2.127 6.744a5 5 0 0 0 4.439 2.692 4.98 4.98 0 0 0 2.305-.566l24.056-12.522c.883 1.565.966 3.152.953 3.818-.023 1.148-.432 5.02-4.677 6.635-23.38 8.893-47.918 13.402-72.933 13.402a204.97 204.97 0 0 1-33.723-2.8l-2.318-.387c-1.497-.25-2.068-1.378-2.244-1.852s-.48-1.702.5-2.868l36.896-44.346a8.18 8.18 0 0 1 6.306-2.956c1.113 0 2.198.223 3.226.664l3.986 1.708-15.612 8.127c-2.45 1.276-3.402 4.296-2.127 6.745zm-78.702-2.15c39.9-21.708 93.03-33.663 149.638-33.663 20.942 0 41.565 1.667 61.42 4.93l-15.556 30c-22.694-2.96-37.87-2.584-47.23-2.643l-51.876-22.233c-2.28-.977-4.7-1.472-7.165-1.472a18.15 18.15 0 0 0-13.993 6.56l-25.16 30.24c-29.183 8.173-55.103 20.045-75.027 34.398-15.55 11.2-27.48 23.953-35.18 37.46-.152-1.737-.233-3.48-.233-5.23-.002-29.333 21.436-57.154 60.36-78.337zm149.637 278.092c-99.404 0-182.895-66.037-204.54-154.4 11.1 15.55 28.014 29.75 50.122 41.78 41.33 22.5 96.17 34.875 154.418 34.875 91.644 0 172.02-31.207 204.584-76.83-21.577 88.46-105.115 154.584-204.584 154.584zm-115.5-149.75c34.486 0 61.5-14.495 61.5-33s-27.014-33-61.5-33c-38.75 0-52.5 17.777-52.5 33s13.75 33 52.5 33zm0-56c30.35 0 51.5 12.12 51.5 23 0 5.4-5.02 10.982-13.77 15.32-9.995 4.953-23.395 7.68-37.73 7.68-25.817 0-42.5-9.028-42.5-23s16.683-23 42.5-23zm-10.03 40c13.88 0 24.75-7.373 24.75-16.785s-10.87-16.784-24.75-16.784-24.75 7.373-24.75 16.784 10.87 16.785 24.75 16.785zm0-23.57c9.004 0 14.75 4.018 14.75 6.784s-5.746 6.785-14.75 6.785-14.75-4.02-14.75-6.785 5.746-6.784 14.75-6.784zm96.9 18.575c-.906 6.795 3.645 12.105 13.527 15.783 7.07 2.63 16.484 4.43 25.588 6.17 10.423 2 27.867 5.324 29.473 9.3.133.33-.14 1.238-1.05 2.526-10.36 14.68-68.797 12.25-103.198 7.27-2.74-.4-5.27 1.5-5.665 4.23a5 5 0 0 0 4.231 5.665c.95.138 23.595 3.384 48.617 3.884l6.42.066c31.56 0 50.485-5.038 57.764-15.348 3.687-5.223 3.205-9.428 2.152-12.037-3.646-9.03-19.042-11.972-36.87-15.378-8.697-1.662-17.692-3.38-23.977-5.72-4.642-1.728-7.297-3.63-7.103-5.1s1.263-2.917 3.177-4.348c14.332-10.715 64.763-12.24 91.766-8.04a5 5 0 1 0 1.538-9.881c-25.56-3.975-80.596-4.064-99.3 9.9-4.148 3.102-6.537 6.815-7.1 11.036zm96.745 20.786c-4.955-7.297-16.742-12.93-28.974-17.044 17.83-2.324 31.908.43 32.177.485a5 5 0 0 0 2.013-9.795c-1.102-.228-26.854-5.348-54.635 3.662-7.814-1.772-13.867-2.766-15.6-3.038a5.01 5.01 0 0 0-5.714 4.165 5 5 0 0 0 4.165 5.714c4.595.72 9.997 1.768 15.637 3.08.336.118 3.8.9 5.177 1.265 16.134 4.135 32.816 10.255 37.48 17.123 1.197 1.763 1.13 2.97.937 3.824-2.3 10.225-8.243 17.88-18.142 23.4-12.47 6.955-31.144 10.322-55.587 10.034h-.062c-2.733 0-4.965 2.2-5 4.94a5 5 0 0 0 4.94 5.06l3.027.02c47.288-.001 74.396-13.872 80.576-41.25.9-3.97.064-7.996-2.415-11.645zm-37.4-60.098c.412-.15 41.845-14.87 83.214 7.697a4.98 4.98 0 0 0 2.4.61c1.77 0 3.486-.943 4.395-2.607a5 5 0 0 0-1.995-6.784c-45.472-24.802-89.604-8.986-91.46-8.3a5 5 0 0 0 3.455 9.384zm50.504 54.277a5 5 0 0 0 4.442 2.698 4.98 4.98 0 0 0 2.299-.563c.35-.18 35.347-18 69.335-5.734a5 5 0 0 0 3.392-9.407c-38.063-13.724-75.747 5.443-77.333 6.266a5 5 0 0 0-2.135 6.74zm29.894 12.028l27.333-.667a5 5 0 0 0-.12-9.999l-.124.001-27.333.667a5 5 0 0 0 .12 9.999l.124-.001zm-143.728 2.976a4.99 4.99 0 0 0 5.568-4.358 5 5 0 0 0-4.357-5.569c-25.805-3.147-38.108 2.486-51.13 8.45-8.53 3.908-17.353 7.95-31.23 10.07-32.058 4.903-46.357-17.177-46.995-18.2a5 5 0 0 0-8.508 5.254c.653 1.063 14.953 23.657 46.32 23.657a70.69 70.69 0 0 0 10.69-.835c15.26-2.332 25.155-6.864 33.886-10.864 12.7-5.82 22.75-10.42 45.754-7.614zm187.658-1.584c-7.32 6.973-29.513 6.557-45.717 6.253l-10.335-.133c-23.106 0-33.696 25.54-34.136 26.626a5 5 0 0 0 2.762 6.51 4.99 4.99 0 0 0 1.872.366c1.978 0 3.85-1.182 4.638-3.127.082-.204 8.426-20.374 24.864-20.374l10.147.13c19.922.374 42.503.798 52.8-9a5 5 0 0 0-6.896-7.242zM185.82 247.294h23.998a5 5 0 1 0 0-10H185.82c-8.57 0-15.982-10.037-18.115-13.904a5 5 0 0 0-8.773 4.799c.425.78 10.607 19.105 26.888 19.105z"/></svg>