<svg xmlns="http://www.w3.org/2000/svg" width="512" height="512"><path d="M432.86 205.9a175.565 175.565 0 0 1-10.56 71.88c-8.76 24-23.03 45.6-40.5 64.24L256 476 130.2 342.02c-17.48-18.63-31.75-40.24-40.5-64.24a175.565 175.565 0 0 1-10.56-71.88C85.17 115.8 157.1 36 256 36s170.83 79.8 176.86 169.9zm-43.94 7.84c0-75.38-59.5-136.5-132.92-136.5s-132.92 61.1-132.92 136.5 59.5 136.5 132.92 136.5 132.92-61.1 132.92-136.5z" fill="#e48e66"/><path d="M256 77.25c73.4 0 132.92 61.1 132.92 136.5S329.4 350.23 256 350.23s-132.92-61.1-132.92-136.5S182.6 77.25 256 77.25z" fill="#f8ec7d"/><path d="M239.56 124.9a6 6 0 0 0-6 6v35.15a10.791 10.791 0 0 1-4.78 8.958V130.9a6 6 0 0 0-12 0v44.118a10.9 10.9 0 0 1-1.621-1.334A10.751 10.751 0 0 1 212 166.06V130.9a6 6 0 1 0-12 0v35.15a22.743 22.743 0 0 0 16.78 21.971v26.99a6 6 0 0 0 12 0v-26.978a22.827 22.827 0 0 0 16.78-21.982V130.9a6 6 0 0 0-6-6z" fill="#e48e66"/><path d="M306 128.63V236h-35.04v-88.9a18.294 18.294 0 0 1 17.91-18.3z" fill="#6fe3ff"/><path d="M292.32 236.45v51.7a10.68 10.68 0 1 1-21.36 0V236h21.36z" fill="#e48e66"/><path d="M234.38 215.02v70.9a11.6 11.6 0 1 1-23.19 0v-70.9h23.2z" fill="#6fe3ff"/></svg>