<?xml version="1.0"?>
<svg xmlns="http://www.w3.org/2000/svg" id="Layer_1" data-name="Layer 1" viewBox="0 0 512 512" width="512" height="512"><title>Nearby restaurants </title><path d="M432.86,205.9a175.565,175.565,0,0,1-10.56,71.88c-8.76,24-23.03,45.61-40.51,64.24L256,476,130.21,342.02c-17.48-18.63-31.75-40.24-40.51-64.24A175.565,175.565,0,0,1,79.14,205.9C85.17,115.8,157.11,36,256,36S426.83,115.8,432.86,205.9Zm-43.94,7.84c0-75.38-59.51-136.49-132.92-136.49S123.08,138.36,123.08,213.74,182.59,350.23,256,350.23,388.92,289.12,388.92,213.74Z" style="fill:#e48e66"/><path d="M256,77.25c73.41,0,132.92,61.11,132.92,136.49S329.41,350.23,256,350.23,123.08,289.12,123.08,213.74,182.59,77.25,256,77.25Z" style="fill:#f8ec7d"/><path d="M239.56,124.91a6,6,0,0,0-6,6v35.15a10.791,10.791,0,0,1-4.78,8.958V130.91a6,6,0,0,0-12,0v44.118a10.9,10.9,0,0,1-1.621-1.334A10.751,10.751,0,0,1,212,166.06V130.91a6,6,0,1,0-12,0v35.15a22.743,22.743,0,0,0,16.78,21.971V215.02a6,6,0,0,0,12,0V188.042a22.827,22.827,0,0,0,16.78-21.982V130.91A6,6,0,0,0,239.56,124.91Z" style="fill:#e48e66"/><path d="M306,128.63V236.01H270.96v-88.9a18.294,18.294,0,0,1,17.91-18.3Z" style="fill:#6fe3ff"/><path d="M292.32,236.45v51.71a10.68,10.68,0,1,1-21.36,0V236.01h21.36Z" style="fill:#e48e66"/><path d="M234.38,215.02v70.91a11.6,11.6,0,1,1-23.19,0V215.02h23.19Z" style="fill:#6fe3ff"/></svg>
